<svg xmlns="http://www.w3.org/2000/svg" width="480" height="242" viewBox="0 0 480 242" role="img" aria-labelledby="truestats-languages-title truestats-languages-desc">
  <title id="truestats-languages-title">Most used languages</title>
  <desc id="truestats-languages-desc">TypeScript 67.2%, JavaScript 14.2%, Swift 10.8%, PHP 4.4%, Shell 1.5%, Python 0.9%, CSS 0.6%, Ruby 0.3%, Other &lt;0.1%</desc>
  <style>
    text { font-family: -apple-system, BlinkMacSystemFont, &quot;Segoe UI&quot;, Helvetica, Arial, sans-serif; }
    .title { font-size: 16px; font-weight: 600; fill: #e6edf3; }
    .label { font-size: 13px; fill: #8b949e; }
    .value { font-size: 13px; font-weight: 600; fill: #c9d1d9; }
    .small { font-size: 11px; fill: #8b949e; }
    .big { font-size: 28px; font-weight: 600; fill: #c9d1d9; }
    .accent { fill: #58a6ff; }
    .body { font-size: 13px; fill: #c9d1d9; }
  </style>
  <rect x="0.5" y="0.5" width="479" height="241" rx="7.5" fill="#0d1117" stroke="#30363d"/>
  <text x="24" y="36" class="title">Most used languages</text>
  <defs>
    <clipPath id="truestats-lang-bar"><rect x="24" y="54" width="432" height="10" rx="5"/></clipPath>
  </defs>
  <rect x="24" y="54" width="432" height="10" rx="5" fill="#21262d"/>
  <g clip-path="url(#truestats-lang-bar)">
    <rect x="24.00" y="54" width="290.46" height="10" fill="#3178c6"/>
    <rect x="314.46" y="54" width="61.54" height="10" fill="#f1e05a"/>
    <rect x="376.01" y="54" width="46.47" height="10" fill="#F05138"/>
    <rect x="422.47" y="54" width="19.22" height="10" fill="#4F5D95"/>
    <rect x="441.69" y="54" width="6.40" height="10" fill="#89e051"/>
    <rect x="448.09" y="54" width="3.77" height="10" fill="#3572A5"/>
    <rect x="451.86" y="54" width="2.58" height="10" fill="#663399"/>
    <rect x="454.43" y="54" width="1.17" height="10" fill="#701516"/>
    <rect x="455.60" y="54" width="0.40" height="10" fill="#8b949e"/>
  </g>
  <g>
    <circle cx="29" cy="88" r="5" fill="#3178c6"/>
    <text x="40" y="92" class="body">TypeScript</text>
    <text x="228" y="92" class="label" text-anchor="end">67.2%</text>
  </g>
  <g>
    <circle cx="245" cy="88" r="5" fill="#f1e05a"/>
    <text x="256" y="92" class="body">JavaScript</text>
    <text x="444" y="92" class="label" text-anchor="end">14.2%</text>
  </g>
  <g>
    <circle cx="29" cy="112" r="5" fill="#F05138"/>
    <text x="40" y="116" class="body">Swift</text>
    <text x="228" y="116" class="label" text-anchor="end">10.8%</text>
  </g>
  <g>
    <circle cx="245" cy="112" r="5" fill="#4F5D95"/>
    <text x="256" y="116" class="body">PHP</text>
    <text x="444" y="116" class="label" text-anchor="end">4.4%</text>
  </g>
  <g>
    <circle cx="29" cy="136" r="5" fill="#89e051"/>
    <text x="40" y="140" class="body">Shell</text>
    <text x="228" y="140" class="label" text-anchor="end">1.5%</text>
  </g>
  <g>
    <circle cx="245" cy="136" r="5" fill="#3572A5"/>
    <text x="256" y="140" class="body">Python</text>
    <text x="444" y="140" class="label" text-anchor="end">0.9%</text>
  </g>
  <g>
    <circle cx="29" cy="160" r="5" fill="#663399"/>
    <text x="40" y="164" class="body">CSS</text>
    <text x="228" y="164" class="label" text-anchor="end">0.6%</text>
  </g>
  <g>
    <circle cx="245" cy="160" r="5" fill="#701516"/>
    <text x="256" y="164" class="body">Ruby</text>
    <text x="444" y="164" class="label" text-anchor="end">0.3%</text>
  </g>
  <g>
    <circle cx="29" cy="184" r="5" fill="#8b949e"/>
    <text x="40" y="188" class="body">Other</text>
    <text x="228" y="188" class="label" text-anchor="end"><0.1%</text>
  </g>
  <text x="24" y="220" class="small">By bytes across 7 repositories (public only). Archived and forks excluded.</text>
</svg>
